# xmcd CD database file
#
# Track frame offsets:
#	150
#	900
#	1650
#	2400
#	3150
#	3900
#	4650
#	5400
#	6150
#	6900
#	7650
#	8400
#	9150
#	9900
#	10650
#	11400
#	263425
#
# Disc length: 4440 seconds
#
# Revision: 1
# Processed by: cddbd v1.5.1PL0 Copyright (c) Steve Scherf et al.
# Submitted via: CDex 1.40Release
#
DISCID=6d115611
DTITLE=sweet box - adagio
DYEAR=1900
DGENRE=Hip-Hop
TTITLE0=Liberty
TTITLE1=Life Is Cool
TTITLE2=Somewhere
TTITLE3=Hate Without Frontiers
TTITLE4=Far Away
TTITLE5=Testimony
TTITLE6=I'll Be There
TTITLE7=Lacrimosa
TTITLE8=Sorry
TTITLE9=I Don't Wanna Be
TTITLE10=Chyna Girl
TTITLE11=Everybody
TTITLE12=Miss You
TTITLE13=You Can't Hide
TTITLE14=1000 Words
TTITLE15=real Emotion
TTITLE16=Unknown
EXTD=ID3G: 7
EXTT0=
EXTT1=
EXTT2=
EXTT3=
EXTT4=
EXTT5=
EXTT6=
EXTT7=
EXTT8=
EXTT9=
EXTT10=
EXTT11=
EXTT12=
EXTT13=
EXTT14=
EXTT15=
EXTT16=
PLAYORDER=
